<svg width="135" height="40" viewBox="0 0 135 40" fill="none" xmlns="http://www.w3.org/2000/svg">
<path d="M130 0H5C2.23858 0 0 2.23858 0 5V35C0 37.7614 2.23858 40 5 40H130C132.761 40 135 37.7614 135 35V5C135 2.23858 132.761 0 130 0Z" fill="#A6A6A6"/>
<path d="M130 0.8C132.32 0.8 134.2 2.68 134.2 5V35C134.2 37.32 132.32 39.2 130 39.2H5C2.68 39.2 0.8 37.32 0.8 35V5C0.8 2.68 2.68 0.8 5 0.8H130ZM130 0H5C2.25 0 0 2.25 0 5V35C0 37.75 2.25 40 5 40H130C132.75 40 135 37.75 135 35V5C135 2.25 132.75 0 130 0Z" fill="#A6A6A6"/>
<path d="M47.4201 10.24C47.4201 11.08 47.1701 11.75 46.6701 12.24C46.1101 12.83 45.3701 13.13 44.4701 13.13C43.5701 13.13 42.8701 12.83 42.2601 12.23C41.6501 11.63 41.3501 10.88 41.3501 10C41.3501 9.12 41.6501 8.37 42.2601 7.77C42.8701 7.17 43.6001 6.87 44.4701 6.87C44.9001 6.87 45.3101 6.95 45.7001 7.12C46.0901 7.29 46.4001 7.51 46.6401 7.79L46.1101 8.31999C45.7101 7.84999 45.1701 7.61 44.4701 7.61C43.8401 7.61 43.2901 7.82999 42.8301 8.27999C42.3701 8.72 42.1401 9.3 42.1401 10.01C42.1401 10.72 42.3701 11.3 42.8301 11.74C43.2901 12.18 43.8401 12.41 44.4701 12.41C45.1401 12.41 45.7001 12.19 46.1501 11.74C46.4401 11.45 46.6101 11.04 46.6501 10.52H44.4701V9.8H47.3801C47.4101 9.96 47.4201 10.11 47.4201 10.25V10.24Z" fill="white" stroke="white" stroke-width="0.2" stroke-miterlimit="10"/>
<path d="M52.0302 7.74H49.3002V9.64H51.7602V10.36H49.3002V12.26H52.0302V13H48.5302V7H52.0302V7.74Z" fill="white" stroke="white" stroke-width="0.2" stroke-miterlimit="10"/>
<path d="M55.2801 13H54.5101V7.74H52.8301V7H56.9501V7.74H55.2701V13H55.2801Z" fill="white" stroke="white" stroke-width="0.2" stroke-miterlimit="10"/>
<path d="M59.9401 13V7H60.7101V13H59.9401Z" fill="white" stroke="white" stroke-width="0.2" stroke-miterlimit="10"/>
<path d="M64.1301 13H63.3601V7.74H61.6801V7H65.8001V7.74H64.1201V13H64.1301Z" fill="white" stroke="white" stroke-width="0.2" stroke-miterlimit="10"/>
<path d="M73.6101 12.22C73.0201 12.83 72.2901 13.13 71.4101 13.13C70.5301 13.13 69.8001 12.83 69.2101 12.22C68.6201 11.61 68.3301 10.87 68.3301 10C68.3301 9.13 68.6201 8.38 69.2101 7.78C69.8001 7.17 70.5301 6.87 71.4101 6.87C72.2901 6.87 73.0101 7.17 73.6101 7.78C74.2001 8.39 74.5001 9.13 74.5001 10C74.5001 10.87 74.2001 11.62 73.6201 12.22H73.6101ZM69.7801 11.72C70.2201 12.17 70.7701 12.39 71.4101 12.39C72.0501 12.39 72.6001 12.17 73.0401 11.72C73.4801 11.27 73.7101 10.7 73.7101 10C73.7101 9.3 73.4901 8.73 73.0401 8.27999C72.6001 7.82999 72.0501 7.61 71.4101 7.61C70.7701 7.61 70.2201 7.82999 69.7801 8.27999C69.3401 8.73 69.1101 9.3 69.1101 10C69.1101 10.7 69.3301 11.27 69.7801 11.72Z" fill="white" stroke="white" stroke-width="0.2" stroke-miterlimit="10"/>
<path d="M75.5801 13V7H76.5201L79.4401 11.67H79.4701L79.4401 10.51V7H80.2101V13H79.4101L76.3601 8.11H76.3301L76.3601 9.27V13.01H75.5901L75.5801 13Z" fill="white" stroke="white" stroke-width="0.2" stroke-miterlimit="10"/>
<path d="M68.14 21.75C65.79 21.75 63.87 23.54 63.87 26C63.87 28.46 65.79 30.25 68.14 30.25C70.49 30.25 72.41 28.45 72.41 26C72.41 23.55 70.49 21.75 68.14 21.75ZM68.14 28.58C66.85 28.58 65.74 27.52 65.74 26C65.74 24.48 66.85 23.42 68.14 23.42C69.43 23.42 70.54 24.47 70.54 26C70.54 27.53 69.43 28.58 68.14 28.58ZM58.82 21.75C56.47 21.75 54.55 23.54 54.55 26C54.55 28.46 56.47 30.25 58.82 30.25C61.17 30.25 63.09 28.45 63.09 26C63.09 23.55 61.17 21.75 58.82 21.75ZM58.82 28.58C57.53 28.58 56.42 27.52 56.42 26C56.42 24.48 57.53 23.42 58.82 23.42C60.11 23.42 61.22 24.47 61.22 26C61.22 27.53 60.11 28.58 58.82 28.58ZM47.74 23.06V24.86H52.06C51.93 25.88 51.59 26.62 51.08 27.13C50.45 27.76 49.47 28.45 47.75 28.45C45.09 28.45 43.01 26.31 43.01 23.65C43.01 20.99 45.09 18.85 47.75 18.85C49.18 18.85 50.23 19.41 51 20.14L52.27 18.87C51.19 17.84 49.76 17.05 47.74 17.05C44.1 17.05 41.04 20.01 41.04 23.66C41.04 27.31 44.1 30.27 47.74 30.27C49.71 30.27 51.19 29.63 52.35 28.42C53.54 27.23 53.91 25.55 53.91 24.2C53.91 23.78 53.88 23.39 53.81 23.07H47.74V23.06ZM93.05 24.46C92.7 23.51 91.62 21.75 89.41 21.75C87.2 21.75 85.4 23.47 85.4 26C85.4 28.38 87.2 30.25 89.62 30.25C91.57 30.25 92.7 29.06 93.16 28.37L91.71 27.4C91.23 28.11 90.57 28.58 89.62 28.58C88.67 28.58 87.99 28.14 87.56 27.29L93.25 24.94L93.06 24.46H93.05ZM87.25 25.88C87.2 24.24 88.52 23.4 89.47 23.4C90.21 23.4 90.84 23.77 91.05 24.3L87.25 25.88ZM82.63 30H84.5V17.5H82.63V30ZM79.57 22.7H79.51C79.09 22.2 78.29 21.75 77.27 21.75C75.14 21.75 73.19 23.62 73.19 26.02C73.19 28.42 75.14 30.26 77.27 30.26C78.29 30.26 79.09 29.81 79.51 29.29H79.57V29.9C79.57 31.53 78.7 32.4 77.3 32.4C76.16 32.4 75.45 31.58 75.16 30.89L73.53 31.57C74 32.7 75.24 34.08 77.3 34.08C79.49 34.08 81.34 32.79 81.34 29.65V22.01H79.57V22.7ZM77.42 28.58C76.13 28.58 75.05 27.5 75.05 26.02C75.05 24.54 76.13 23.43 77.42 23.43C78.71 23.43 79.69 24.53 79.69 26.02C79.69 27.51 78.69 28.58 77.42 28.58ZM101.81 17.5H97.34V30H99.21V25.26H101.82C103.89 25.26 105.92 23.76 105.92 21.38C105.92 19 103.89 17.5 101.82 17.5H101.81ZM101.85 23.52H99.2V19.23H101.85C103.25 19.23 104.04 20.39 104.04 21.37C104.04 22.35 103.25 23.51 101.85 23.51V23.52ZM113.39 21.73C112.04 21.73 110.64 22.33 110.06 23.64L111.72 24.33C112.07 23.64 112.73 23.41 113.42 23.41C114.38 23.41 115.37 23.99 115.38 25.02V25.15C115.04 24.96 114.32 24.67 113.43 24.67C111.64 24.67 109.83 25.65 109.83 27.48C109.83 29.15 111.29 30.23 112.93 30.23C114.18 30.23 114.88 29.67 115.31 29.01H115.37V29.98H117.17V25.19C117.17 22.97 115.51 21.73 113.37 21.73H113.39ZM113.16 28.58C112.55 28.58 111.7 28.27 111.7 27.52C111.7 26.56 112.76 26.19 113.68 26.19C114.5 26.19 114.89 26.37 115.38 26.61C115.24 27.77 114.24 28.59 113.16 28.59V28.58ZM123.74 22L121.6 27.42H121.54L119.32 22H117.31L120.64 29.58L118.74 33.79H120.69L125.82 22H123.75H123.74ZM106.94 30H108.81V17.5H106.94V30Z" fill="white"/>
<path d="M20.7199 19.42L10.0699 30.72C10.3999 31.95 11.5199 32.85 12.8499 32.85C13.3799 32.85 13.8799 32.71 14.3099 32.45L14.3399 32.43L26.3199 25.52L20.7099 19.41L20.7199 19.42Z" fill="#EA4335"/>
<path d="M31.49 17.5H31.48L26.31 14.49L20.48 19.68L26.33 25.53L31.48 22.56C32.38 22.07 32.99 21.12 32.99 20.03C32.99 18.94 32.39 17.99 31.49 17.51V17.5Z" fill="#FBBC04"/>
<path d="M10.07 9.28003C10.01 9.52003 9.96997 9.76003 9.96997 10.02V29.99C9.96997 30.25 9.99997 30.49 10.07 30.73L21.08 19.72L10.07 9.28003Z" fill="#4285F4"/>
<path d="M20.7999 20L26.3099 14.49L14.3399 7.55001C13.9099 7.29001 13.3999 7.14001 12.8499 7.14001C11.5199 7.14001 10.3999 8.05002 10.0699 9.27002L20.7999 19.99V20Z" fill="#34A853"/>
</svg>
